<?xml version="1.0" encoding="UTF-8" standalone="no"?>
<!-- Created with Inkscape (http://www.inkscape.org/) -->

<svg
   xmlns:dc="http://purl.org/dc/elements/1.1/"
   xmlns:cc="http://creativecommons.org/ns#"
   xmlns:rdf="http://www.w3.org/1999/02/22-rdf-syntax-ns#"
   xmlns:svg="http://www.w3.org/2000/svg"
   xmlns="http://www.w3.org/2000/svg"
   xmlns:sodipodi="http://sodipodi.sourceforge.net/DTD/sodipodi-0.dtd"
   xmlns:inkscape="http://www.inkscape.org/namespaces/inkscape"
   width="600"
   height="600"
   id="svg2"
   version="1.1"
   inkscape:version="0.48.5 r10040"
   sodipodi:docname="binary.svg">
  <defs
     id="defs4" />
  <sodipodi:namedview
     id="base"
     pagecolor="#ffffff"
     bordercolor="#666666"
     borderopacity="1.0"
     inkscape:pageopacity="0.0"
     inkscape:pageshadow="2"
     inkscape:zoom="0.5"
     inkscape:cx="-3.8571429"
     inkscape:cy="206.52649"
     inkscape:document-units="px"
     inkscape:current-layer="text2993-2"
     showgrid="false"
     inkscape:window-width="1185"
     inkscape:window-height="743"
     inkscape:window-x="29"
     inkscape:window-y="54"
     inkscape:window-maximized="0" />
  <metadata
     id="metadata7">
    <rdf:RDF>
      <cc:Work
         rdf:about="">
        <dc:format>image/svg+xml</dc:format>
        <dc:type
           rdf:resource="http://purl.org/dc/dcmitype/StillImage" />
        <dc:title />
      </cc:Work>
    </rdf:RDF>
  </metadata>
  <g
     inkscape:label="Layer 1"
     inkscape:groupmode="layer"
     id="layer1"
     transform="translate(0,-452.36218)">
    <g
       transform="matrix(0.85196242,0,0,1.1737607,-4,40)"
       style="font-size:209.28051758px;font-style:normal;font-weight:normal;line-height:125%;letter-spacing:0px;word-spacing:0px;fill:#000000;fill-opacity:1;stroke:none;font-family:Sans"
       id="text2993">
      <path
         d="m -130.72676,505.15546 c -43.16469,11.07313 -33.84708,72.11614 -25.88226,105.77552 32.92323,54.81152 72.098705,-21.47868 57.464605,-57.67696 -1.381685,-19.13354 -6.811695,-48.22196 -31.582345,-48.09856 z m 0,-16.35004 c 45.009847,-0.8354 55.929104,53.02885 52.51648,88.54251 4.924382,40.60572 -32.97354,86.91358 -75.1511,64.68803 -36.89635,-24.07274 -33.03589,-77.31818 -24.82522,-115.13358 5.51269,-21.50057 24.29762,-39.41779 47.45984,-38.09696 z"
         id="path3019"
         inkscape:connector-curvature="0" />
      <path
         d="m 39.425729,590.97647 c 9.924497,-3.56106 34.700173,7.72906 33.721958,-6.73472 0,-36.55238 0,-73.10475 0,-109.65713 -11.014117,-0.52618 -32.92575,12.24774 -36.685403,2.86771 -6.450028,-19.02959 13.88942,-16.13322 26.407166,-19.63856 9.729058,-0.34622 34.563159,-9.61264 30.715788,6.94792 0,42.0716 0,84.14319 0,126.21478 9.924502,3.56106 34.700172,-7.72905 33.721962,6.73472 4.77818,18.80014 -20.37322,7.6707 -31.428682,10.6372 -18.817597,0 -37.635193,0 -56.452789,0 0,-5.79064 0,-11.58128 0,-17.37192 z"
         id="path3021"
         inkscape:connector-curvature="0" />
      <path
         d="m 210.89957,467.66912 c -43.16468,11.07313 -33.84708,72.11614 -25.88225,105.77552 32.92322,54.81152 72.09869,-21.47868 57.4646,-57.67696 -1.38169,-19.13354 -6.8117,-48.22196 -31.58235,-48.09856 z m 0,-16.35004 c 45.00985,-0.8354 55.92911,53.02885 52.51648,88.54251 4.92438,40.60572 -32.97354,86.91358 -75.1511,64.68803 -36.89635,-24.07274 -33.03587,-77.31818 -24.82522,-115.13358 5.51269,-21.50057 24.29762,-39.41779 47.45984,-38.09696 z"
         id="path3023"
         inkscape:connector-curvature="0" />
      <path
         d="m 346.49993,457.44557 c -43.16468,11.07313 -33.84708,72.11614 -25.88225,105.77552 32.92323,54.81152 72.09869,-21.47868 57.46459,-57.67696 -1.38168,-19.13354 -6.81169,-48.22196 -31.58234,-48.09856 z m 0,-16.35004 c 45.00985,-0.8354 55.92911,53.02885 52.51648,88.54251 4.92438,40.60572 -32.97354,86.91358 -75.1511,64.68803 -36.89636,-24.07274 -33.03587,-77.31818 -24.82522,-115.13358 5.51269,-21.50057 24.29762,-39.41779 47.45984,-38.09696 z"
         id="path3025"
         inkscape:connector-curvature="0" />
      <path
         d="m 432.14164,609.71964 c 9.9245,-3.56106 34.70017,7.72906 33.72196,-6.73472 0,-36.55238 0,-73.10475 0,-109.65713 -11.01412,-0.52617 -32.92575,12.24774 -36.68541,2.86771 -6.45003,-19.02959 13.88942,-16.13322 26.40717,-19.63856 9.72906,-0.34622 34.56316,-9.61264 30.71579,6.94792 0,42.0716 0,84.14319 0,126.21478 9.92449,3.56106 34.70017,-7.72906 33.72195,6.73472 4.77818,18.80014 -20.37322,7.6707 -31.42868,10.6372 -18.81759,0 -37.63519,0 -56.45278,0 0,-5.79064 0,-11.58128 0,-17.37192 z"
         id="path3027"
         inkscape:connector-curvature="0" />
      <path
         d="m 572.437,590.97647 c 9.9245,-3.56106 34.70017,7.72906 33.72196,-6.73472 0,-36.55238 0,-73.10475 0,-109.65713 -11.01412,-0.52618 -32.92575,12.24774 -36.6854,2.86771 -6.45003,-19.02959 13.88942,-16.13322 26.40717,-19.63856 9.72905,-0.34622 34.56315,-9.61264 30.71578,6.94792 0,42.0716 0,84.14319 0,126.21478 9.9245,3.56106 34.70017,-7.72906 33.72196,6.73472 4.77818,18.80014 -20.37322,7.6707 -31.42868,10.6372 -18.8176,0 -37.63519,0 -56.45279,0 0,-5.79064 0,-11.58128 0,-17.37192 z"
         id="path3029"
         inkscape:connector-curvature="0" />
      <path
         d="m 879.51122,469.37304 c -43.16468,11.07313 -33.84708,72.11614 -25.88225,105.77552 32.92323,54.81152 72.09869,-21.47868 57.46459,-57.67696 -1.38168,-19.13354 -6.81169,-48.22196 -31.58234,-48.09856 z m 0,-16.35004 c 45.00985,-0.8354 55.92911,53.02885 52.51648,88.54251 4.92438,40.60572 -32.97354,86.91358 -75.1511,64.68803 -36.89636,-24.07274 -33.03587,-77.31818 -24.82522,-115.13358 5.51269,-21.50057 24.29762,-39.41779 47.45984,-38.09696 z"
         id="path3033"
         inkscape:connector-curvature="0" />
      <path
         d="m 972.19549,590.97647 c 9.92447,-3.56107 34.70011,7.72907 33.72191,-6.73472 0,-36.55238 0,-73.10475 0,-109.65713 -11.0141,-0.52618 -32.92573,12.24776 -36.68536,2.86771 -6.45003,-19.02959 13.88942,-16.13322 26.40717,-19.63855 9.72909,-0.34622 34.56319,-9.61266 30.71579,6.94791 0,42.0716 0,84.14319 0,126.21478 9.9245,3.56105 34.7002,-7.72905 33.722,6.73472 4.7782,18.80014 -20.3732,7.6707 -31.4287,10.6372 -18.8176,0 -37.6352,0 -56.45281,0 0,-5.79064 0,-11.58128 0,-17.37192 z"
         id="path3035"
         inkscape:connector-curvature="0" />
      <path
         d="m 1105.4483,590.97647 c 9.9245,-3.56105 34.7002,7.72905 33.722,-6.73472 0,-36.55238 0,-73.10475 0,-109.65713 -11.0141,-0.52618 -32.9257,12.24774 -36.6854,2.86771 -6.45,-19.02959 13.8894,-16.13322 26.4072,-19.63856 9.729,-0.34623 34.5631,-9.61263 30.7157,6.94792 0,42.0716 0,84.14319 0,126.21478 9.9245,3.56105 34.7002,-7.72905 33.722,6.73472 4.7782,18.80014 -20.3732,7.6707 -31.4287,10.6372 -18.8176,0 -37.6352,0 -56.4528,0 0,-5.79064 0,-11.58128 0,-17.37192 z"
         id="path3037"
         inkscape:connector-curvature="0" />
    </g>
    <g
       transform="matrix(0.85196242,0,0,1.1737607,-54,44)"
       style="font-size:209.28051758px;font-style:normal;font-weight:normal;line-height:125%;letter-spacing:0px;word-spacing:0px;fill:#000000;fill-opacity:1;stroke:none;font-family:Sans"
       id="text2993-2">
      <path
         d="m 80.478699,814.24167 c 9.924498,-3.56106 34.700171,7.72905 33.721961,-6.73472 0,-36.55237 0,-73.10475 0,-109.65713 -11.01412,-0.52618 -32.92575,12.24774 -36.685405,2.86771 -6.450028,-19.02959 13.889419,-16.13322 26.407165,-19.63856 9.72906,-0.34622 34.56316,-9.61264 30.71579,6.94792 0,42.0716 0,84.14319 0,126.21478 9.9245,3.56106 34.70017,-7.72905 33.72196,6.73472 4.77818,18.80014 -20.37322,7.6707 -31.42868,10.6372 -18.8176,0 -37.635195,0 -56.452791,0 0,-5.79064 0,-11.58128 0,-17.37192 z"
         id="path3048"
         inkscape:connector-curvature="0" />
      <path
         d="m 204.34142,822.76129 c 9.9245,-3.56106 34.70017,7.72905 33.72196,-6.73472 0,-36.55237 0,-73.10475 0,-109.65713 -11.01412,-0.52617 -32.92575,12.24774 -36.68541,2.86771 -6.45003,-19.02959 13.88942,-16.13322 26.40717,-19.63856 9.72905,-0.34622 34.56316,-9.61264 30.71579,6.94792 0,42.0716 0,84.14319 0,126.21478 9.92449,3.56106 34.70017,-7.72906 33.72195,6.73472 4.77818,18.80014 -20.37322,7.6707 -31.42868,10.6372 -18.81759,0 -37.63519,0 -56.45278,0 0,-5.79064 0,-11.58128 0,-17.37192 z"
         id="path3050"
         inkscape:connector-curvature="0" />
      <path
         d="m 344.63686,802.3142 c 9.92449,-3.56106 34.70017,7.72906 33.72195,-6.73472 0,-36.55237 0,-73.10475 0,-109.65713 -11.01412,-0.52618 -32.92575,12.24774 -36.6854,2.86771 -6.45003,-19.02959 13.88942,-16.13322 26.40717,-19.63856 9.72905,-0.34622 34.56315,-9.61264 30.71578,6.94792 0,42.0716 0,84.14319 0,126.21478 9.9245,3.56106 34.70017,-7.72905 33.72196,6.73472 4.77818,18.80014 -20.37322,7.6707 -31.42868,10.6372 -18.81759,0 -37.63519,0 -56.45278,0 0,-5.79064 0,-11.58128 0,-17.37192 z"
         id="path3052"
         inkscape:connector-curvature="0" />
      <path
         d="m 520.80572,692.63824 c -43.16468,11.07313 -33.84709,72.11614 -25.88225,105.77551 32.92322,54.81153 72.0987,-21.47867 57.4646,-57.67695 -1.38168,-19.13353 -6.8117,-48.22197 -31.58235,-48.09856 z m 0,-16.35004 c 45.00985,-0.8354 55.92911,53.02885 52.51648,88.54251 4.92438,40.60571 -32.97354,86.91358 -75.1511,64.68803 -36.89636,-24.07273 -33.03587,-77.31818 -24.82522,-115.13358 5.51269,-21.50057 24.29762,-39.41779 47.45984,-38.09696 z"
         id="path3054"
         inkscape:connector-curvature="0" />
      <path
         d="m 618.18503,815.94559 c 9.9245,-3.56106 34.70017,7.72905 33.72196,-6.73472 0,-36.55237 0,-73.10475 0,-109.65713 -11.01412,-0.52618 -32.92575,12.24774 -36.6854,2.86771 -6.45003,-19.02959 13.88942,-16.13322 26.40717,-19.63856 9.72905,-0.34622 34.56315,-9.61263 30.71578,6.94792 0,42.0716 0,84.14319 0,126.21478 9.9245,3.56106 34.70017,-7.72905 33.72196,6.73472 4.77818,18.80014 -20.37322,7.6707 -31.42868,10.6372 -18.8176,0 -37.63519,0 -56.45279,0 0,-5.79064 0,-11.58128 0,-17.37192 z"
         id="path3056"
         inkscape:connector-curvature="0" />
      <path
         d="m 864.11887,805.72205 c 9.9245,-3.56106 34.70017,7.72905 33.72196,-6.73472 0,-36.55237 0,-73.10475 0,-109.65713 -11.01412,-0.52617 -32.92575,12.24774 -36.68541,2.86771 -6.45003,-19.02959 13.88942,-16.13322 26.40717,-19.63856 9.72905,-0.34622 34.56316,-9.61264 30.71579,6.94792 0,42.0716 0,84.14319 0,126.21478 9.9245,3.56106 34.70017,-7.72905 33.72196,6.73472 4.77818,18.80014 -20.37322,7.6707 -31.42868,10.6372 -18.8176,0 -37.63519,0 -56.45279,0 0,-5.79064 0,-11.58128 0,-17.37192 z"
         id="path3058"
         inkscape:connector-curvature="0" />
    </g>
  </g>
</svg>
